<svg xmlns="http://www.w3.org/2000/svg" width="89" height="93" viewBox="0 0 89 93" fill="none">
<g opacity="0.1">
<path fill-rule="evenodd" clip-rule="evenodd" d="M52.9826 -21.6487C50.9383 -21.6487 49.3569 -20.4676 48.8306 -19.0215L48.8154 -18.9805L45.1451 -9.20113C44.7927 -8.26216 44.1275 -7.47304 43.2613 -6.96643L30.7211 0.368118C29.8638 0.869555 28.8611 1.0641 27.8782 0.919689L17.479 -0.608341L17.3964 -0.621288C15.7273 -0.899235 14.058 -0.131247 13.028 1.53689L9.70871 7.56699C9.68233 7.61491 9.65506 7.66232 9.6269 7.70921C8.74273 9.18161 8.88043 11.2 9.9409 12.5623L16.3639 20.8137C16.9604 21.58 17.2843 22.5231 17.2843 23.4939V38.163C17.2843 39.1955 16.918 40.1947 16.2505 40.9829L9.59047 48.8473C8.57087 50.2085 8.44942 52.1906 9.32104 53.6421C9.3492 53.689 9.37647 53.7364 9.40285 53.7843L12.7211 59.8126C13.737 61.448 15.6631 62.2314 17.0273 61.9836C17.0758 61.9748 17.1244 61.9668 17.1732 61.9596L27.5724 60.4316C28.5397 60.2895 29.5268 60.4756 30.3758 60.9603L43.2219 68.2949C44.1552 68.8278 44.8592 69.6858 45.1991 70.7048L48.4818 80.5447C49.3813 82.3706 50.9274 83.3056 52.6768 83.3056H60.0174C62.0617 83.3056 63.6431 82.1245 64.1694 80.6784L64.1846 80.6374L67.8549 70.858C68.2128 69.9044 68.8931 69.1058 69.7781 68.6005L82.6242 61.2659C83.4732 60.7812 84.4603 60.5951 85.4276 60.7372L95.8268 62.2652L95.9094 62.2782C97.5785 62.5561 99.2478 61.7882 100.278 60.1201L103.597 54.0899C103.624 54.042 103.651 53.9946 103.679 53.9477C104.563 52.4753 104.425 50.4569 103.365 49.0946L96.9419 40.8432C96.3454 40.0769 96.0216 39.1338 96.0216 38.163V23.4939C96.0216 22.5231 96.3454 21.58 96.9419 20.8137L103.365 12.5623C104.425 11.2 104.563 9.18161 103.679 7.70921C103.651 7.66232 103.624 7.61491 103.597 7.567L100.279 1.53869C99.2629 -0.0966969 97.3369 -0.880135 95.9727 -0.632307C95.9242 -0.623497 95.8756 -0.615509 95.8268 -0.608341L85.4276 0.919689C84.4603 1.06183 83.4732 0.87565 82.6242 0.390945L69.7781 -6.9436C68.8931 -7.44891 68.2128 -8.2475 67.8549 -9.20113L64.2432 -18.8242C63.3485 -20.692 61.787 -21.6487 60.0174 -21.6487H52.9826ZM40.6266 -22.028C42.5536 -27.2914 47.6939 -30.3799 52.9826 -30.3799H60.0174C65.5517 -30.3799 70.0794 -27.0982 72.2531 -22.3199C72.294 -22.23 72.3319 -22.1387 72.3666 -22.0462L75.4831 -13.7425L85.6494 -7.93797L94.4908 -9.23709C99.8126 -10.1653 105.157 -7.30963 107.808 -2.89506C107.836 -2.84818 107.863 -2.80076 107.889 -2.75285L111.218 3.2949C113.953 7.92292 113.466 13.8073 110.263 17.9227L104.76 24.9918V36.6651L110.263 43.7341C113.466 47.8496 113.953 53.734 111.218 58.362L107.889 64.4097C107.863 64.4576 107.836 64.5051 107.808 64.5519C105.171 68.9425 100.151 71.8163 94.5182 70.898L85.6494 69.5949L75.4831 75.3994L72.3732 83.6854C70.446 88.9485 65.3059 92.0368 60.0174 92.0368H52.6768C47.1424 92.0368 42.6148 88.7551 40.441 83.9768C40.3778 83.8378 40.3219 83.6956 40.2736 83.5508L37.437 75.0481L27.3506 69.2893L18.5092 70.5884C13.1874 71.5166 7.84331 68.6609 5.19239 64.2463C5.16423 64.1995 5.13696 64.152 5.11058 64.1041L1.78153 58.0563C-0.952817 53.4283 -0.466179 47.544 2.73738 43.4285C2.77423 43.3812 2.81205 43.3346 2.85083 43.2888L8.54591 36.5638V24.9918L3.04323 17.9227C-0.160329 13.8073 -0.64696 7.92295 2.08741 3.29493L5.41644 -2.75285C5.44281 -2.80076 5.47009 -2.84817 5.49824 -2.89506C8.13475 -7.2856 13.1545 -10.1594 18.7877 -9.24112L27.6312 -7.94168L37.5079 -13.7184L40.6266 -22.028Z" fill="#000000"/>
<path fill-rule="evenodd" clip-rule="evenodd" d="M56.6516 8.91183C44.5374 8.91183 34.7169 18.7242 34.7169 30.8284C34.7169 42.9326 44.5374 52.7449 56.6516 52.7449C68.7658 52.7449 78.5862 42.9326 78.5862 30.8284C78.5862 18.7242 68.7658 8.91183 56.6516 8.91183ZM25.9785 30.8284C25.9785 13.9021 39.7113 0.180664 56.6516 0.180664C73.5918 0.180664 87.3246 13.9021 87.3246 30.8284C87.3246 47.7547 73.5918 61.4761 56.6516 61.4761C39.7113 61.4761 25.9785 47.7547 25.9785 30.8284Z" fill="#000000"/>
<path fill-rule="evenodd" clip-rule="evenodd" d="M56.6516 0.180664C59.0646 0.180664 61.0208 2.1352 61.0208 4.54625V26.4628H82.9555C85.3685 26.4628 87.3246 28.4173 87.3246 30.8284C87.3246 33.2394 85.3685 35.194 82.9555 35.194H58.4403L41.058 52.2771C39.3377 53.9678 36.5714 53.945 34.8793 52.2261C33.1872 50.5072 33.21 47.7431 34.9303 46.0524L52.2824 28.9989V4.54625C52.2824 2.1352 54.2385 0.180664 56.6516 0.180664Z" fill="#000000"/>
</g>
</svg>