<svg width="0" height="0" class="hidden">
  <symbol fill="none" viewBox="0 0 24 24" id="4x4-cell">
    <g>
      <path stroke="currentColor" stroke-width="1.5" d="M21 3.6V12h-9V3h8.4a.6.6 0 01.6.6z"></path>
      <path stroke="currentColor" stroke-width="1.5" d="M21 20.4V12h-9v9h8.4a.6.6 0 00.6-.6z"></path>
      <path stroke="currentColor" stroke-width="1.5" d="M3 12V3.6a.6.6 0 01.6-.6H12v9H3z"></path>
      <path stroke="currentColor" stroke-width="1.5" d="M3 12v8.4a.6.6 0 00.6.6H12v-9H3z"></path>
    </g>
  </symbol>
  <symbol fill="none" viewBox="0 0 24 24" id="arrow-left">
    <g>
      <path stroke="currentColor" stroke-linecap="round" stroke-linejoin="round" stroke-width="1.5" d="M18.5 12H6m0 0l6-6m-6 6l6 6"></path>
    </g>
  </symbol>
  <symbol fill="none" viewBox="0 0 24 24" id="arrow-separate-vertical">
    <g>
      <path stroke="currentColor" stroke-linecap="round" stroke-linejoin="round" stroke-width="1.5" d="M15.5 9.5L12 6 8.5 9.5"></path>
      <path stroke="currentColor" stroke-linecap="round" stroke-linejoin="round" stroke-width="1.5" d="M15.5 14L12 17.5 8.5 14"></path>
    </g>
  </symbol>
  <symbol fill="none" viewBox="0 0 24 24" id="bell">
    <g>
      <path stroke="currentColor" stroke-linecap="round" stroke-linejoin="round" stroke-width="1.5" d="M18 8.4c0-1.697-.632-3.325-1.757-4.525C15.117 2.675 13.59 2 12 2c-1.591 0-3.117.674-4.243 1.875C6.632 5.075 6 6.703 6 8.4 6 15.867 3 18 3 18h18s-3-2.133-3-9.6z"></path>
      <path stroke="currentColor" stroke-linecap="round" stroke-linejoin="round" stroke-width="1.5" d="M13.73 21a1.999 1.999 0 01-3.46 0"></path>
    </g>
  </symbol>
  <symbol fill="none" viewBox="0 0 24 24" id="building">
    <g>
      <path stroke="currentColor" stroke-linecap="round" stroke-linejoin="round" stroke-width="1.5" d="M10 9.01l.01-.011"></path>
      <path stroke="currentColor" stroke-linecap="round" stroke-linejoin="round" stroke-width="1.5" d="M14 9.01l.01-.011"></path>
      <path stroke="currentColor" stroke-linecap="round" stroke-linejoin="round" stroke-width="1.5" d="M10 13.01l.01-.011"></path>
      <path stroke="currentColor" stroke-linecap="round" stroke-linejoin="round" stroke-width="1.5" d="M14 13.01l.01-.011"></path>
      <path stroke="currentColor" stroke-linecap="round" stroke-linejoin="round" stroke-width="1.5" d="M10 17.01l.01-.011"></path>
      <path stroke="currentColor" stroke-linecap="round" stroke-linejoin="round" stroke-width="1.5" d="M14 17.01l.01-.011"></path>
      <path stroke="currentColor" stroke-linecap="round" stroke-linejoin="round" stroke-width="1.5" d="M6 20.4V5.6a.6.6 0 01.6-.6H12V3.6a.6.6 0 01.6-.6h4.8a.6.6 0 01.6.6v16.8a.6.6 0 01-.6.6H6.6a.6.6 0 01-.6-.6z"></path>
    </g>
  </symbol>
  <symbol fill="none" viewBox="0 0 24 24" id="calendar">
    <g>
      <path stroke="currentColor" stroke-linecap="round" stroke-linejoin="round" stroke-width="1.5" d="M15 4V2m0 2v2m0-2h-4.5M3 10v9a2 2 0 002 2h14a2 2 0 002-2v-9H3z"></path>
      <path stroke="currentColor" stroke-linecap="round" stroke-linejoin="round" stroke-width="1.5" d="M3 10V6a2 2 0 012-2h2"></path>
      <path stroke="currentColor" stroke-linecap="round" stroke-linejoin="round" stroke-width="1.5" d="M7 2v4"></path>
      <path stroke="currentColor" stroke-linecap="round" stroke-linejoin="round" stroke-width="1.5" d="M21 10V6a2 2 0 00-2-2h-.5"></path>
    </g>
  </symbol>
  <symbol fill="none" viewBox="0 0 24 24" id="cancel">
    <g>
      <path stroke="currentColor" stroke-linecap="round" stroke-linejoin="round" stroke-width="1.5" d="M6.757 17.243L12 12m5.243-5.243L12 12m0 0L6.757 6.757M12 12l5.243 5.243"></path>
    </g>
  </symbol>
  <symbol fill="none" viewBox="0 0 24 24" id="check-circled-outline">
    <g>
      <path stroke="currentColor" stroke-linecap="round" stroke-linejoin="round" stroke-width="1.5" d="M7 12.5l3 3 7-7"></path>
      <path stroke="currentColor" stroke-linecap="round" stroke-linejoin="round" stroke-width="1.5" d="M12 22c5.523 0 10-4.477 10-10S17.523 2 12 2 2 6.477 2 12s4.477 10 10 10z"></path>
    </g>
  </symbol>
  <symbol fill="none" viewBox="0 0 24 24" id="check">
    <g>
      <path stroke="currentColor" stroke-linecap="round" stroke-linejoin="round" stroke-width="1.5" d="M5 13l4 4L19 7"></path>
    </g>
  </symbol>
  <symbol fill="none" viewBox="0 0 24 24" id="circle-filled-outlined">
    <g>
      <path fill="currentColor" stroke="#010101" stroke-linecap="round" stroke-linejoin="round" stroke-width="1.5" d="M12 22c5.523 0 10-4.477 10-10S17.523 2 12 2 2 6.477 2 12s4.477 10 10 10z"></path>
    </g>
  </symbol>
  <symbol fill="none" viewBox="0 0 24 24" id="circle-filled">
    <g>
      <path fill="currentColor" stroke="currentColor" stroke-linecap="round" stroke-linejoin="round" stroke-width="1.5" d="M12 22c5.523 0 10-4.477 10-10S17.523 2 12 2 2 6.477 2 12s4.477 10 10 10z"></path>
    </g>
  </symbol>
  <symbol fill="none" viewBox="0 0 24 24" id="clock-outline">
    <g>
      <path stroke="currentColor" stroke-linecap="round" stroke-linejoin="round" stroke-width="1.5" d="M12 6v6h6"></path>
      <path stroke="currentColor" stroke-linecap="round" stroke-linejoin="round" stroke-width="1.5" d="M12 22c5.523 0 10-4.477 10-10S17.523 2 12 2 2 6.477 2 12s4.477 10 10 10z"></path>
    </g>
  </symbol>
  <symbol fill="none" viewBox="0 0 24 24" id="code-brackets">
    <g>
      <g>
        <path stroke="currentColor" stroke-linecap="round" stroke-linejoin="round" stroke-width="1.5" d="M9 21H8c-1.105 0-2-.894-2-1.999V14c0-1-1.5-2-1.5-2S6 11 6 10V5a2 2 0 012-2h1"></path>
        <path stroke="currentColor" stroke-linecap="round" stroke-linejoin="round" stroke-width="1.5" d="M15 21h1c1.105 0 2-.894 2-1.999V14c0-1 1.5-2 1.5-2S18 11 18 10V5a2 2 0 00-2-2h-1"></path>
      </g>
    </g>
  </symbol>
  <symbol fill="none" viewBox="0 0 24 24" id="color-picker">
    <g>
      <path stroke="currentColor" stroke-linecap="round" stroke-linejoin="round" stroke-width="1.5" d="M13.879 7.697L16 9.817a1 1 0 010 1.415L8.363 18.87a1.001 1.001 0 01-.326.218L5.54 20.114c-1.233.508-2.465-.725-1.958-1.958L4.61 15.66a.999.999 0 01.218-.327l7.637-7.636a1 1 0 011.414 0z"></path>
      <path stroke="currentColor" stroke-linecap="round" stroke-linejoin="round" stroke-width="1.5" d="M16 5.575l2.121 2.122M13.88 3.454L16 5.575 13.88 3.454zm6.364 6.364L18.12 7.697l2.122 2.12zM16 5.575l1.414-1.414a1 1 0 011.414 0l.708.707a1 1 0 010 1.414L18.12 7.697l-2.12-2.122z"></path>
    </g>
  </symbol>
  <symbol fill="none" viewBox="0 0 24 24" id="data-transfer-both">
    <g>
      <path stroke="currentColor" stroke-linecap="round" stroke-linejoin="round" stroke-width="1.5" d="M20 17H4m0 0l3-3m-3 3l3 3"></path>
      <path stroke="currentColor" stroke-linecap="round" stroke-linejoin="round" stroke-width="1.5" d="M4 7h16m0 0l-3-3m3 3l-3 3"></path>
    </g>
  </symbol>
  <symbol fill="none" viewBox="0 0 24 24" id="data-transfer-down">
    <g>
      <path stroke="currentColor" stroke-linecap="round" stroke-linejoin="round" stroke-width="1.5" d="M20 17H4m0 0l3-3m-3 3l3 3"></path>
      <g>
        <path stroke="currentColor" stroke-linecap="round" stroke-linejoin="round" stroke-width="1.5" d="M4 7h1"></path>
        <path stroke="currentColor" stroke-linecap="round" stroke-linejoin="round" stroke-width="1.5" d="M9 7h1"></path>
        <path stroke="currentColor" stroke-linecap="round" stroke-linejoin="round" stroke-width="1.5" d="M14 7h6m0 0l-3-3m3 3l-3 3"></path>
      </g>
    </g>
  </symbol>
  <symbol fill="none" viewBox="0 0 24 24" id="data-transfer-up">
    <g>
      <path stroke="currentColor" stroke-linecap="round" stroke-linejoin="round" stroke-width="1.5" d="M4 7h16m0 0l-3 3m3-3l-3-3"></path>
      <g>
        <path stroke="currentColor" stroke-linecap="round" stroke-linejoin="round" stroke-width="1.5" d="M20 17h-1"></path>
        <path stroke="currentColor" stroke-linecap="round" stroke-linejoin="round" stroke-width="1.5" d="M15 17h-1"></path>
        <path stroke="currentColor" stroke-linecap="round" stroke-linejoin="round" stroke-width="1.5" d="M10 17H4m0 0l3 3m-3-3l3-3"></path>
      </g>
    </g>
  </symbol>
  <symbol fill="none" viewBox="0 0 24 24" id="download">
    <g>
      <path stroke="currentColor" stroke-linecap="round" stroke-linejoin="round" stroke-width="1.5" d="M6 20h12"></path>
      <path stroke="currentColor" stroke-linecap="round" stroke-linejoin="round" stroke-width="1.5" d="M12 4v12m0 0l3.5-3.5M12 16l-3.5-3.5"></path>
    </g>
  </symbol>
  <symbol fill="none" viewBox="0 0 24 24" id="edit-pencil">
    <g>
      <path stroke="currentColor" stroke-linecap="round" stroke-linejoin="round" stroke-width="1.5" d="M13.02 5.828L15.85 3l4.95 4.95-2.83 2.828m-4.95-4.95l-9.606 9.607a1 1 0 00-.293.707v4.536h4.536a1 1 0 00.707-.293l9.607-9.607m-4.95-4.95l4.95 4.95"></path>
    </g>
  </symbol>
  <symbol fill="none" viewBox="0 0 24 24" id="empty-page">
    <g>
      <path stroke="currentColor" stroke-linecap="round" stroke-linejoin="round" stroke-width="1.5" d="M4 21.4V2.6a.6.6 0 01.6-.6h11.652a.6.6 0 01.424.176l3.148 3.148A.6.6 0 0120 5.75V21.4a.6.6 0 01-.6.6H4.6a.6.6 0 01-.6-.6z"></path>
      <path fill="currentColor" stroke="currentColor" stroke-linecap="round" stroke-linejoin="round" stroke-width="1.5" d="M16 5.4V2.354a.354.354 0 01.604-.25l3.292 3.292a.353.353 0 01-.25.604H16.6a.6.6 0 01-.6-.6z"></path>
    </g>
  </symbol>
  <symbol fill="none" viewBox="0 0 24 24" id="eye-empty">
    <g>
      <path stroke="currentColor" stroke-linecap="round" stroke-linejoin="round" stroke-width="1.5" d="M12 14a2 2 0 100-4 2 2 0 000 4z"></path>
      <path stroke="currentColor" stroke-linecap="round" stroke-linejoin="round" stroke-width="1.5" d="M21 12c-1.889 2.991-5.282 6-9 6s-7.111-3.009-9-6c2.299-2.842 4.992-6 9-6s6.701 3.158 9 6z"></path>
    </g>
  </symbol>
  <symbol fill="none" viewBox="0 0 24 24" id="filter">
    <g>
      <path stroke="currentColor" stroke-linecap="round" stroke-linejoin="round" stroke-width="1.5" d="M4 3h16a1 1 0 011 1v1.586a1 1 0 01-.293.707l-6.414 6.414a1 1 0 00-.293.707v6.305a1 1 0 01-1.242.97l-2-.5a1 1 0 01-.758-.97v-5.805a1 1 0 00-.293-.707L3.293 6.293A1 1 0 013 5.586V4a1 1 0 011-1z"></path>
    </g>
  </symbol>
  <symbol fill="none" viewBox="0 0 24 24" id="hand">
    <g>
      <path stroke="currentColor" stroke-linecap="round" stroke-linejoin="round" stroke-width="1.5" d="M7 10.5l-2.004 2.672a2 2 0 00.126 2.552l3.784 4.128c.378.413.912.648 1.473.648H15c2.4 0 4-1.5 4-4 0 0 0 0 0 0V7.929"></path>
      <path stroke="currentColor" stroke-linecap="round" stroke-linejoin="round" stroke-width="1.5" d="M16 8.5v-.571c0-2.286 3-2.286 3 0"></path>
      <path stroke="currentColor" stroke-linecap="round" stroke-linejoin="round" stroke-width="1.5" d="M13 8.5V7.027m0-.527v.527M16 8.5V7.93v-.902c0-2.286-3-2.286-3 0"></path>
      <path stroke="currentColor" stroke-linecap="round" stroke-linejoin="round" stroke-width="1.5" d="M13 8.5V7.027c0-2.286 3-2.286 3 0V8.5"></path>
      <path stroke="currentColor" stroke-linecap="round" stroke-linejoin="round" stroke-width="1.5" d="M10 8.5v-2c0-2.286 3-2.286 3 0 0 0 0 0 0 0v2"></path>
      <path stroke="currentColor" stroke-linecap="round" stroke-linejoin="round" stroke-width="1.5" d="M7 13.5v-7A1.5 1.5 0 018.5 5v0c.828 0 1.5.555 1.5 1.384V8.5"></path>
    </g>
  </symbol>
  <symbol fill="none" viewBox="0 0 24 24" id="if">
    <g>
      <path stroke="currentColor" stroke-linecap="round" stroke-linejoin="round" stroke-width="1.5" d="M12 22c5.523 0 10-4.477 10-10S17.523 2 12 2 2 6.477 2 12s4.477 10 10 10z"></path>
      <g>
        <path fill="currentColor" d="M12.7 14h1.5v1.5h-1.5V14zM14.7 14h1.5v1.5h-1.5V14zM16.7 14h1.5v1.5h-1.5V14zM6.2 8.5h1.5v7H6.2v-7zM9.2 8.5h1.5v7H9.2v-7zM10.7 8.5h2V10h-2V8.5z"></path>
        <path fill="currentColor" d="M10.2 11.5h2V13h-2v-1.5z"></path>
      </g>
    </g>
  </symbol>
  <symbol fill="none" viewBox="0 0 24 24" id="import">
    <g>
      <path stroke="currentColor" stroke-linecap="round" stroke-linejoin="round" stroke-width="1.5" d="M4.5 13.5L8 17l3.5-3.5"></path>
      <path stroke="currentColor" stroke-linecap="round" stroke-linejoin="round" stroke-width="1.5" d="M8 17v-6a4 4 0 014-4h7"></path>
    </g>
  </symbol>
  <symbol fill="none" viewBox="0 0 24 24" id="info-empty">
    <g>
      <path stroke="currentColor" stroke-linecap="round" stroke-linejoin="round" stroke-width="1.5" d="M12 11.5v5"></path>
      <path stroke="currentColor" stroke-linecap="round" stroke-linejoin="round" stroke-width="1.5" d="M12 7.51l.01-.011"></path>
      <path stroke="currentColor" stroke-linecap="round" stroke-linejoin="round" stroke-width="1.5" d="M12 22c5.523 0 10-4.477 10-10S17.523 2 12 2 2 6.477 2 12s4.477 10 10 10z"></path>
    </g>
  </symbol>
  <symbol fill="none" viewBox="0 0 24 24" id="integer">
    <g>
      <path fill="currentColor" d="M4.195 16.756l.359-.348-.36.348zm-.089-9.9l.263-.426-.763-.472v.898h.5zm.148.091l.282.413.636-.433-.655-.405-.263.425zM1.989 8.49l-.282-.413-.002.001.284.412zm-.4-.046l-.405.294.021.029.025.025.359-.348zm.074-.488l.245.435.018-.01.017-.012-.28-.413zm2.591-1.757l-.263-.426-.009.006-.009.006.281.414zm.133-.046v.5h.064l.061-.016-.125-.484zm.119 0l-.125.484.026.007.026.003.073-.494zm.163.107l-.42.271.011.018.013.017.396-.306zm-.03 10.496l.359.348-.359-.348zm9.689-.428l.359-.348-.359.348zm0 .443l.326.379.017-.015.016-.016-.359-.348zm-6.174.015l-.271.42.02.013.021.011.23-.444zm-.045-.458L7.732 16l-.018.02-.016.023.411.285zm3.48-4.003l-.373-.334-.005.006.378.328zm1.347-1.833l-.44-.237-.002.002.442.235zM9.96 6.825l.196.46-.196-.46zm-.888.565l-.337-.37-.008.008.345.362zm-.548.78l.46.197.002-.006-.462-.192zm-.133.198l.306.395.006-.004.006-.005-.318-.386zm-.385-.015l-.326.379.02.017.022.016.284-.412zm-.074-.29l.475.153.006-.018.004-.018-.485-.117zm.059-.169l-.453-.212-.005.01-.004.01.462.192zm.71-.931l-.329-.377-.006.005.335.372zm1.096-.688l.197.46.005-.003-.202-.457zm2.813.092l-.24.438.003.002.237-.44zm1.052 1.023l-.436.246.436-.246zm-1.585 5.302l-.373-.333-.007.008.38.325zm-3.183 3.727l-.404.294.372.513.412-.482-.38-.325zm-.133-.183v-.5h-.982l.577.794.405-.294zm8.23-.733l-.228.444.05.026.054.014.125-.484zm.149.122l-.385.32.006.006.005.006.374-.332zm.785.55l.185-.464-.185.464zm2.502-.183l-.241-.438-.004.002.245.436zm1.051-1.024l-.427-.26-.004.007.431.253zm-.03-3.07l-.408.287.003.005.406-.293zm-1.08-.887l-.204.457.01.004.194-.46zm-1.57-.275v.5h.029l.028-.003-.057-.497zm-.251.015l-.064-.496-.01.002.074.494zm-.34-.076l-.39.314.014.018.016.016.36-.348zm-.045-.367l-.45-.218.45.218zm.088-.137l-.374-.332-.01.013-.01.012.394.307zm3.14-3.545l.461-.191-.306-.738-.53.598.375.331zm.088.214v.5h.75l-.288-.692-.462.192zm-4.975-.091l-.359.348.36-.348zm0-.428l.326.379.017-.015.016-.016-.359-.348zm5.582.046l-.459.197.005.01.005.01.45-.217zm.03.305l-.45-.218-.015.031-.01.034.475.153zm-.074.107l-.36-.348-.007.009-.008.009.375.33zm-3.124 3.545l-.148.477.309.096.214-.243-.375-.33zm-.296-.092h-.5v.369l.352.109.148-.478zm.237-.092l-.09-.492-.005.001.095.491zm1.924.321l-.221.448.003.002.218-.45zm1.23 1.115l-.423.268.004.006.418-.274zm0 3.743l.425.262-.426-.262zm-1.304 1.238l-.239-.44-.003.003.242.437zm-2.99.214l-.187.464.01.004.177-.468zm-1.067-.749l.37-.336-.005-.006-.006-.006-.359.348zm-.074-.091l-.486.117.02.083.046.07.42-.27zm.074-.352l-.384-.32.384.32zm-12.234.768a.206.206 0 01.137.06l-.718.697a.796.796 0 00.58.243v-1zm.137.06a.205.205 0 01.052.134h-1c0 .218.085.413.23.563l.718-.696zm.052.135V6.856h-1v9.686h1zM3.843 7.28l.148.091.526-.85-.148-.092-.526.85zm.13-.747L1.707 8.077l.563.827L4.536 7.36l-.563-.826zM1.705 8.078c-.012.009.032-.027.12-.027v1a.79.79 0 00.447-.149l-.567-.824zm.12-.027c.025 0 .054.006.08.018.026.012.04.024.043.027l-.718.696a.82.82 0 00.596.26v-1zm.168.1c-.01-.014-.008-.016-.005-.006.005.011.012.036.012.07H1c0 .213.088.39.184.523l.81-.588zM2 8.214a.227.227 0 01-.092.176l-.49-.871A.784.784 0 001 8.215h1zm-.057.154l2.592-1.757-.562-.827-2.59 1.757.56.827zm2.574-1.745l-.007.004a.308.308 0 01-.122.025v-1a.755.755 0 00-.397.12l.526.85zm-.005.013a.267.267 0 01-.131 0l.25-.968a.733.733 0 00-.369 0l.25.968zm-.08.01a.274.274 0 01-.183-.116l.84-.543a.726.726 0 00-.51-.33l-.146.99zm-.159-.08a.235.235 0 01-.04-.077c-.005-.02-.005-.032-.005-.032h1a.813.813 0 00-.164-.505l-.79.613zm-.045-.109v10.084h1V6.458h-1zm0 10.084a.204.204 0 01.052-.134l.718.695a.797.797 0 00.23-.561h-1zm.052-.134a.206.206 0 01.137-.06v1c.217 0 .423-.081.581-.244l-.718-.696zm9.84.328a.229.229 0 01-.151-.06l.718-.696a.78.78 0 00-.566-.244v1zm-.151-.06a.204.204 0 01-.052-.134h1a.797.797 0 00-.23-.562l-.718.696zm-.052-.134c0-.009.001-.03.011-.055a.195.195 0 01.04-.064l.719.696a.815.815 0 00.23-.577h-1zm.085-.15a.187.187 0 01.119-.045v1a.808.808 0 00.533-.197l-.652-.758zm.119-.045H8.405v1h5.716v-1zm-5.716 0a.043.043 0 01-.022-.005l-.459.889c.15.077.313.116.481.116v-1zm.02.019a.263.263 0 01.095.11c.017.037.015.06.015.05h-1c0 .235.084.51.348.68l.542-.84zm.11.16a.229.229 0 01-.013.08c-.005.013-.008.015-.002.006l-.822-.569a.85.85 0 00-.163.483h1zm-.048.13l3.48-4.003-.756-.656L7.731 16l.756.656zm3.474-3.997c.627-.7 1.105-1.344 1.417-1.933l-.884-.469c-.26.491-.68 1.069-1.277 1.734l.744.668zm1.415-1.93c.32-.594.504-1.17.504-1.72h-1c0 .328-.112.74-.384 1.246l.88.474zm.504-1.72c0-.83-.253-1.545-.796-2.093l-.71.704c.325.328.506.774.506 1.39h1zm-.796-2.093c-.545-.55-1.265-.805-2.102-.805v1c.623 0 1.069.183 1.392.51l.71-.705zm-2.102-.805a3.09 3.09 0 00-1.217.254l.39.92c.278-.118.552-.174.827-.174v-1zm-1.217.254c-.385.163-.73.382-1.03.656l.674.739c.213-.195.46-.353.747-.475l-.391-.92zm-1.038.663a2.775 2.775 0 00-.665.95l.924.383c.089-.214.229-.417.43-.608l-.689-.725zm-.662.944a.37.37 0 01-.02.037l.006-.006a.187.187 0 01.021-.02l.637.77c.135-.111.219-.258.274-.386l-.918-.395zm.02 0a.301.301 0 01.107-.054c.02-.005.03-.004.02-.004v1a.78.78 0 00.485-.15l-.612-.791zm.128-.058c.004 0 .015 0 .03.005a.163.163 0 01.046.022l-.567.824c.151.103.321.149.49.149v-1zm.119.06a.276.276 0 01.085.196h-1c0 .231.105.426.263.562l.652-.758zm.085.195c0-.001 0 .017-.01.047l-.951-.307a.846.846 0 00-.04.26h1zm0 .011l.008-.024.028-.07-.924-.383a1.696 1.696 0 00-.083.242l.971.235zm.026-.073c.126-.268.32-.526.594-.773l-.67-.743a3.45 3.45 0 00-.829 1.09l.905.426zm.588-.768a3.6 3.6 0 01.963-.604l-.393-.92a4.6 4.6 0 00-1.229.771l.659.753zm.968-.607c.359-.158.7-.232 1.027-.232v-1c-.482 0-.96.11-1.431.318l.404.914zm1.027-.232c.545 0 .987.109 1.343.305l.482-.876c-.531-.293-1.146-.429-1.825-.429v1zm1.347.307c.373.2.654.475.853.829l.871-.491a3.087 3.087 0 00-1.25-1.219l-.474.88zm.853.829c.197.35.306.78.306 1.313h1c0-.67-.138-1.278-.435-1.804l-.87.49zm.306 1.313c0 .418-.127.904-.418 1.466l.888.459c.341-.66.53-1.304.53-1.925h-1zm-.418 1.466c-.29.56-.755 1.209-1.41 1.944l.747.665c.687-.772 1.21-1.489 1.551-2.15l-.888-.46zm-1.417 1.952l-3.183 3.728.76.65 3.184-3.729-.76-.649zm-2.399 3.758l-.133-.183-.809.588.134.183.808-.588zm-.537.611h5.36v-1H8.76v1zm8.113-.764a.245.245 0 01-.111-.025l.458-.889a.756.756 0 00-.348-.086v1zm-.007.015a.371.371 0 01-.127-.06c-.007-.007-.002-.004.015.018l.77-.64a1.132 1.132 0 00-.148-.15.678.678 0 00-.26-.136l-.25.968zm-.1-.03c.268.303.595.531.972.682l.371-.928a1.554 1.554 0 01-.596-.418l-.748.664zm.972.682c.374.15.784.22 1.222.22v-1c-.332 0-.613-.053-.85-.148l-.372.928zm1.222.22c.621 0 1.196-.141 1.711-.432l-.49-.871a2.437 2.437 0 01-1.22.302v1zm1.707-.43c.523-.287.94-.692 1.242-1.208l-.863-.506c-.211.36-.496.638-.861.839l.482.876zm1.238-1.201a3.322 3.322 0 00.472-1.757h-1c0 .477-.112.885-.327 1.237l.855.52zm.472-1.757c0-.723-.159-1.36-.524-1.866l-.81.585c.207.287.334.7.334 1.28h1zm-.52-1.861a2.986 2.986 0 00-1.296-1.06l-.389.922c.343.145.631.378.867.713l.818-.575zm-1.287-1.056a3.743 3.743 0 00-1.536-.333v1c.38 0 .756.08 1.13.247l.406-.914zm-1.536-.333c-.093 0-.191.007-.294.018l.114.994c.075-.009.135-.012.18-.012v-1zm-.237.015a2.47 2.47 0 00-.315.02l.128.991c.055-.007.117-.01.187-.01v-1zm-.324.02a3.935 3.935 0 01-.073.011l-.008.001h-.003.007a.25.25 0 01.031-.001v1c.045 0 .093-.007.101-.008a4.76 4.76 0 00.09-.013l-.145-.99zm-.046.01c.014 0 .039.003.069.016.03.012.053.03.068.045l-.718.696a.797.797 0 00.581.244v-1zm.167.095c.02.023.03.046.034.062.005.014.003.019.003.008h-1c0 .181.045.385.185.558l.778-.628zm.037.07c0 .042-.01.076-.02.095l-.9-.436a.777.777 0 00-.08.34h1zm-.02.095c-.001.002 0-.002.007-.011a.572.572 0 01.027-.038l-.79-.613a1.292 1.292 0 00-.144.226l.9.436zm.013-.024l3.139-3.544-.749-.663-3.139 3.544.749.663zm2.303-3.684l.089.214.923-.384-.089-.213-.923.383zm.55-.478h-4.767v1h4.767v-1zm-4.767 0a.229.229 0 01.151.06l-.718.697a.78.78 0 00.567.243v-1zm.151.06c.01.01.025.03.036.058a.204.204 0 01.017.077h-1c0 .217.084.412.23.562l.717-.696zm.053.135a.19.19 0 01-.017.07.258.258 0 01-.069.095l-.652-.758a.766.766 0 00-.262.593h1zm-.053.134a.229.229 0 01-.152.06v-1a.78.78 0 00-.566.244l.718.696zm-.151.06h5.123v-1H16.71v1zm5.123 0c.008 0-.028.002-.08-.027a.294.294 0 01-.128-.138l.919-.395a.707.707 0 00-.312-.344.826.826 0 00-.4-.096v1zm-.198-.144l.014.03.003.01.001.002-.001-.004a.315.315 0 01-.008-.073h1a.949.949 0 00-.11-.401l-.9.436zm.009-.035c0-.043.01-.076.02-.096l.9.436a.777.777 0 00.08-.34h-1zm-.006-.031a.316.316 0 01.039-.082c.007-.01.01-.012.004-.006l.718.696a.79.79 0 00.19-.301l-.95-.307zm.027-.07l-3.124 3.544.75.661 3.124-3.544-.75-.661zm-2.601 3.397l-.297-.092-.295.956.296.091.296-.955zm.056.386a.471.471 0 01-.238.41.235.235 0 01-.023.01c-.002.002.022-.007.093-.02l-.19-.983a1.581 1.581 0 00-.264.07.673.673 0 00-.17.095.53.53 0 00-.208.418h1zm-.174.4c.156-.028.256-.038.31-.038v-1c-.142 0-.31.022-.489.054l.18.984zm.31-.038c.442 0 .875.103 1.303.315l.444-.896a3.897 3.897 0 00-1.747-.419v1zm1.307.317c.415.201.756.508 1.025.933l.845-.535A3.477 3.477 0 0021 10.011l-.437.9zm1.029.939c.26.397.407.927.407 1.62h1c0-.833-.178-1.567-.57-2.167l-.837.547zM22 13.47c0 .623-.143 1.146-.415 1.587l.852.524c.38-.618.563-1.327.563-2.11h-1zm-.415 1.587a2.93 2.93 0 01-1.116 1.06l.478.88a3.93 3.93 0 001.49-1.416l-.852-.524zm-1.119 1.063c-.456.252-.955.38-1.505.38v1c.713 0 1.38-.168 1.99-.506l-.485-.874zm-1.505.38c-.363 0-.718-.065-1.067-.197l-.353.936c.46.173.934.261 1.42.261v-1zm-1.057-.193a2.388 2.388 0 01-.883-.621l-.74.673c.355.39.772.683 1.25.876l.373-.928zm-.894-.633c-.01-.01-.013-.016-.013-.015l-.84.543c.04.062.087.118.135.168l.718-.696zm.053.139v-.004h-1c0 .08.01.161.028.24l.972-.236zm0-.005a.176.176 0 01-.012.063c-.007.018-.015.027-.015.028l-.77-.64a.851.851 0 00-.203.55h1zm-.027.09a.224.224 0 01-.163.074v-1a.777.777 0 00-.606.288l.769.639z"></path>
    </g>
  </symbol>
  <symbol fill="none" viewBox="0 0 24 24" id="language">
    <g>
      <path stroke="currentColor" stroke-linecap="round" stroke-linejoin="round" stroke-width="1.5" d="M2 12c0 5.523 4.477 10 10 10s10-4.477 10-10S17.523 2 12 2 2 6.477 2 12z"></path>
      <path stroke="currentColor" stroke-linecap="round" stroke-linejoin="round" stroke-width="1.5" d="M13 2.05S16 6 16 12c0 6-3 9.95-3 9.95"></path>
      <path stroke="currentColor" stroke-linecap="round" stroke-linejoin="round" stroke-width="1.5" d="M11 21.95S8 18 8 12c0-6 3-9.95 3-9.95"></path>
      <path stroke="currentColor" stroke-linecap="round" stroke-linejoin="round" stroke-width="1.5" d="M2.63 15.5h18.74"></path>
      <path stroke="currentColor" stroke-linecap="round" stroke-linejoin="round" stroke-width="1.5" d="M2.63 8.5h18.74"></path>
    </g>
  </symbol>
  <symbol fill="none" viewBox="0 0 24 24" id="link">
    <g>
      <path stroke="currentColor" stroke-linecap="round" stroke-linejoin="round" stroke-width="1.5" d="M14 11.998C14 9.506 11.683 7 8.857 7H7.143C4.303 7 2 9.238 2 11.998c0 2.378 1.71 4.368 4 4.873a5.3 5.3 0 001.143.124"></path>
      <path stroke="currentColor" stroke-linecap="round" stroke-linejoin="round" stroke-width="1.5" d="M10 11.998c0 2.491 2.317 4.997 5.143 4.997h1.714c2.84 0 5.143-2.237 5.143-4.997 0-2.379-1.71-4.37-4-4.874A5.304 5.304 0 0016.857 7"></path>
    </g>
  </symbol>
  <symbol fill="none" viewBox="0 0 24 24" id="lock">
    <g>
      <path stroke="currentColor" stroke-linecap="round" stroke-linejoin="round" stroke-width="1.5" d="M16 12h1.4a.6.6 0 01.6.6v6.8a.6.6 0 01-.6.6H6.6a.6.6 0 01-.6-.6v-6.8a.6.6 0 01.6-.6H8m8 0V8c0-1.333-.8-4-4-4S8 6.667 8 8v4m8 0H8"></path>
    </g>
  </symbol>
  <symbol fill="none" viewBox="0 0 24 24" id="logout">
    <g>
      <path stroke="currentColor" stroke-linecap="round" stroke-linejoin="round" stroke-width="1.5" d="M12 12h7m0 0l-3 3m3-3l-3-3"></path>
      <path stroke="currentColor" stroke-linecap="round" stroke-linejoin="round" stroke-width="1.5" d="M19 6V5a2 2 0 00-2-2H7a2 2 0 00-2 2v14a2 2 0 002 2h10a2 2 0 002-2v-1"></path>
    </g>
  </symbol>
  <symbol fill="none" viewBox="0 0 24 24" id="magic-wand">
    <g>
      <g>
        <path fill="currentColor" d="M17.541 9.082l-2.623-2.623a.634.634 0 00-.918 0L2.197 18.262a.634.634 0 000 .918l2.623 2.623a.648.648 0 00.459.197.648.648 0 00.459-.197L17.54 10a.634.634 0 000-.918zM5.28 20.426l-1.705-1.705 8.59-8.59 1.705 1.705-8.59 8.59zm9.508-9.508l-1.705-1.705 1.377-1.377 1.705 1.705-1.377 1.377z"></path>
        <path fill="currentColor" d="M18.525 12.36a.634.634 0 00-.918 0 .634.634 0 000 .919l1.311 1.311a.647.647 0 00.46.197.647.647 0 00.458-.197.634.634 0 000-.918l-1.311-1.311z"></path>
        <path fill="currentColor" d="M21.213 8.557h-1.64a.658.658 0 00-.655.656c0 .36.295.656.656.656h1.64c.36 0 .655-.295.655-.656a.658.658 0 00-.656-.656z"></path>
        <path fill="currentColor" d="M18.066 6.59a.648.648 0 00.459-.197l1.279-1.278a.634.634 0 000-.918.634.634 0 00-.918 0l-1.28 1.278a.634.634 0 000 .918.648.648 0 00.46.197z"></path>
        <path fill="currentColor" d="M14.656 4.95c.36 0 .656-.294.656-.655v-1.64A.658.658 0 0014.656 2a.658.658 0 00-.656.656v1.639c0 .36.295.656.656.656z"></path>
        <path fill="currentColor" d="M10.721 6.394a.648.648 0 00.46.196.648.648 0 00.458-.196.634.634 0 000-.918l-1.278-1.312a.634.634 0 00-.918 0 .634.634 0 000 .918l1.278 1.312z"></path>
      </g>
    </g>
  </symbol>
  <symbol fill="none" viewBox="0 0 24 24" id="more-vert">
    <g>
      <path fill="currentColor" stroke="currentColor" stroke-linecap="round" stroke-linejoin="round" stroke-width="1.5" d="M12 12.5a.5.5 0 100-1 .5.5 0 000 1z"></path>
      <path fill="currentColor" stroke="currentColor" stroke-linecap="round" stroke-linejoin="round" stroke-width="1.5" d="M12 18.5a.5.5 0 100-1 .5.5 0 000 1z"></path>
      <path fill="currentColor" stroke="currentColor" stroke-linecap="round" stroke-linejoin="round" stroke-width="1.5" d="M12 6.5a.5.5 0 100-1 .5.5 0 000 1z"></path>
    </g>
  </symbol>
  <symbol fill="none" viewBox="0 0 24 24" id="minus">
    <g>
      <path stroke="currentColor" stroke-linecap="round" stroke-linejoin="round" stroke-width="1.5" d="M6 12h12"></path>
    </g>
  </symbol>
  <symbol fill="none" viewBox="0 0 24 24" id="nav-arrow-down">
    <g>
      <path stroke="currentColor" stroke-linecap="round" stroke-linejoin="round" stroke-width="1.5" d="M6 9l6 6 6-6"></path>
    </g>
  </symbol>
  <symbol fill="none" viewBox="0 0 24 24" id="nav-arrow-right">
    <g>
      <path stroke="currentColor" stroke-linecap="round" stroke-linejoin="round" stroke-width="1.5" d="M9 6l6 6-6 6"></path>
    </g>
  </symbol>
  <symbol fill="none" viewBox="0 0 24 24" id="nav-arrow-left">
    <g>
      <path stroke="currentColor" stroke-linecap="round" stroke-linejoin="round" stroke-width="1.5" d="M15 6l-6 6 6 6"></path>
    </g>
  </symbol>
  <symbol fill="none" viewBox="0 0 24 24" id="nav-arrow-up">
    <g>
      <path stroke="currentColor" stroke-linecap="round" stroke-linejoin="round" stroke-width="1.5" d="M6 15l6-6 6 6"></path>
    </g>
  </symbol>
  <symbol fill="none" viewBox="0 0 24 24" id="network-right">
    <g>
      <rect width="7" height="5" stroke="currentColor" stroke-width="1.5" rx=".6" transform="matrix(0 -1 -1 0 22 21)"></rect>
      <rect width="7" height="5" stroke="currentColor" stroke-width="1.5" rx=".6" transform="matrix(0 -1 -1 0 7 15.5)"></rect>
      <rect width="7" height="5" stroke="currentColor" stroke-width="1.5" rx=".6" transform="matrix(0 -1 -1 0 22 10)"></rect>
      <path stroke="currentColor" stroke-width="1.5" d="M17 17.5h-3.5a2 2 0 01-2-2v-7a2 2 0 012-2H17"></path>
      <path stroke="currentColor" stroke-width="1.5" d="M11.5 12H7"></path>
    </g>
  </symbol>
  <symbol fill="none" viewBox="0 0 24 24" id="number">
    <g>
      <path fill="currentColor" d="M6.326 16.756l.351-.357-.35.357zm-.093-9.9l.254-.431-.754-.445v.876h.5zm.156.091l.272.42.677-.44-.695-.41-.254.43zM4.012 8.49l-.272-.42-.002.002.274.418zm-.419-.046l-.397.304.021.028.026.025.35-.357zm.078-.488l.236.44.018-.01.017-.01-.271-.42zm2.718-1.757l-.255-.431-.008.005-.009.006.272.42zm.14-.046v.5h.06l.059-.015-.12-.485zm.124 0l-.12.485.025.006.025.004.07-.495zm.17.107l-.414.28.013.018.013.017.388-.315zm-.03 10.496l.35.356-.35-.356zm3.39-.046l.393-.31-.392.31zm0-1.024l.374.332.01-.01.009-.012-.392-.31zm.684 0l-.414.28.019.028.021.024.374-.332zm0 1.024l-.392-.31-.012.014-.01.015.414.28zm3.965-.443l-.34.366.003.004.337-.37zm-1.212-2.002l-.477.148.001.006.476-.154zm0-5.53l-.476-.154v.004l.476.15zm1.212-1.986l.336.37.004-.004-.34-.366zm4.068 0l-.343.363.007.007.336-.37zm1.196 1.986l-.477.148.002.007.475-.155zm0 5.53l-.476-.153-.001.005.477.148zM18.9 16.267l.34.367-.34-.367zm-.388-.535l-.342-.365-.004.004.346.36zm.994-1.726l-.477-.149-.002.006.48.143zm0-5.027l-.48.142.003.006.477-.148zm-.994-1.71l-.346.36.009.008.337-.369zm-3.308 0l.342.364-.342-.365zm-.994 1.71l-.477-.148-.002.006.48.142zm0 5.027l-.479.142.002.006.477-.148zm.994 1.726l-.346.36.004.005.342-.365zm-8.645.615a.19.19 0 01.118.052l-.701.713c.162.16.37.235.583.235v-1zm.118.052a.216.216 0 01.056.143h-1a.79.79 0 00.243.57l.701-.713zm.056.143V6.856h-1v9.686h1zM5.98 7.286l.155.092.509-.861-.156-.092-.508.861zm.137-.758L3.74 8.07l.545.839L6.66 7.367l-.545-.84zM3.738 8.072c-.005.004 0 0 .017-.007a.26.26 0 01.087-.014v1a.813.813 0 00.445-.143l-.549-.836zm.104-.02a.17.17 0 01.102.036l-.701.713c.156.154.362.25.599.25v-1zm.149.09c-.01-.014-.01-.016-.005-.004A.21.21 0 014 8.215H3c0 .22.095.4.196.533l.795-.607zM4 8.214c0 .034-.01.081-.04.126-.027.041-.054.056-.053.055l-.473-.881a.782.782 0 00-.434.7h1zm-.058.16L6.66 6.62l-.543-.84L3.4 7.536l.543.84zm2.7-1.746a.29.29 0 01-.114.024v-1a.777.777 0 00-.394.115l.509.861zm.006.01a.244.244 0 01-.115 0l.239-.972a.756.756 0 00-.363 0l.239.971zm-.065.009a.256.256 0 01-.174-.108l.828-.56a.738.738 0 00-.515-.322l-.139.99zm-.148-.073a.239.239 0 01-.042-.078.14.14 0 01-.007-.039h1a.803.803 0 00-.175-.514l-.776.631zm-.05-.117v10.084h1V6.458h-1zm0 10.084a.216.216 0 01.057-.143l.701.713a.79.79 0 00.243-.57h-1zm.057-.143a.19.19 0 01.117-.052v1a.818.818 0 00.584-.235l-.701-.713zm4.052-.052c-.01 0 .001-.002.024.009a.156.156 0 01.058.044l-.785.62c.183.23.442.327.703.327v-1zm.082.053l.001.002v.001s-.002-.009-.002-.03h-1c0 .23.065.455.216.647l.785-.62zm-.001-.026v-.352h-1v.352h1zm0-.352c0-.03.004-.04.003-.037a.116.116 0 01-.02.033l-.748-.664a.984.984 0 00-.235.668h1zm0-.026a.156.156 0 01-.057.044c-.023.01-.034.009-.024.009v-1a.872.872 0 00-.703.327l.785.62zm-.08.053h.061v-1h-.062v1zm.061 0c.022 0 .012.003-.016-.009a.204.204 0 01-.087-.073l.828-.561c-.183-.27-.47-.357-.725-.357v1zm-.063-.03a.115.115 0 01-.014-.021l-.006-.013c-.001-.003.003.008.003.037h1a.984.984 0 00-.236-.668l-.747.664zm-.017.003v.352h1v-.352h-1zm0 .352c0 .02-.003.029-.003.03v-.002l.002-.002.784.62c.152-.192.217-.417.217-.646h-1zm-.023.055a.215.215 0 01.087-.073c.027-.012.038-.009.016-.009v1c.254 0 .542-.087.725-.357l-.828-.56zm.103-.082h-.062v1h.062v-1zm6.31.153c-.71 0-1.264-.209-1.698-.604l-.673.74c.643.584 1.446.864 2.371.864v-1zm-1.694-.6c-.465-.43-.828-1.019-1.076-1.788l-.952.307c.29.9.735 1.647 1.348 2.214l.68-.733zm-1.074-1.783c-.242-.78-.366-1.651-.366-2.617h-1c0 1.051.135 2.024.41 2.913l.956-.296zm-.366-2.617c0-.976.124-1.847.365-2.616l-.954-.299c-.276.881-.411 1.854-.411 2.915h1zm.364-2.612c.248-.769.61-1.35 1.072-1.77l-.673-.74c-.615.56-1.06 1.302-1.35 2.203l.951.307zm1.075-1.773c.436-.403.988-.615 1.695-.615v-1c-.928 0-1.733.287-2.374.882l.68.733zm1.695-.615c.72 0 1.269.213 1.691.612l.687-.727c-.634-.599-1.441-.885-2.378-.885v1zm1.698.619c.46.417.817.997 1.055 1.764l.955-.296c-.28-.904-.72-1.648-1.338-2.209l-.672.74zm1.057 1.77c.25.768.379 1.636.379 2.611h1c0-1.062-.14-2.037-.428-2.92l-.951.31zM20 11.5c0 .964-.129 1.833-.38 2.612l.952.307c.288-.892.428-1.866.428-2.919h-1zm-.381 2.617c-.238.768-.596 1.354-1.058 1.783l.68.733c.613-.569 1.053-1.317 1.333-2.22l-.955-.296zM18.56 15.9c-.422.39-.972.6-1.695.6v1c.934 0 1.74-.28 2.374-.866l-.68-.734zm-1.695.958c.778 0 1.455-.25 1.992-.765l-.692-.722c-.332.32-.753.487-1.3.487v1zm1.988-.761c.525-.492.895-1.152 1.131-1.95l-.958-.284c-.199.67-.49 1.16-.857 1.504l.684.73zm1.13-1.943c.245-.79.364-1.677.364-2.654h-1c0 .897-.11 1.681-.32 2.357l.956.297zm.364-2.654c0-.986-.119-1.878-.364-2.67l-.955.297c.21.676.319 1.465.319 2.373h1zm-.363-2.663c-.236-.797-.607-1.455-1.135-1.938l-.675.738c.362.332.653.815.852 1.484l.958-.284zm-1.127-1.93c-.537-.516-1.214-.765-1.992-.765v1c.547 0 .968.168 1.3.487l.692-.722zm-1.992-.765c-.778 0-1.458.249-2.004.761l.684.73c.345-.323.773-.491 1.32-.491v-1zm-2.004.761c-.513.482-.883 1.135-1.13 1.928l.956.296c.21-.673.502-1.16.858-1.494l-.684-.73zm-1.131 1.934c-.234.789-.347 1.679-.347 2.663h1c0-.91.105-1.701.306-2.379l-.959-.284zm-.347 2.663c0 .975.113 1.86.347 2.648l.959-.285c-.201-.678-.306-1.464-.306-2.363h-1zm.349 2.654c.246.792.615 1.448 1.125 1.939l.693-.722c-.36-.345-.654-.84-.863-1.514l-.955.297zm1.13 1.943c.545.512 1.225.761 2.003.761v-1c-.547 0-.975-.168-1.32-.49l-.684.729z"></path>
    </g>
  </symbol>
  <symbol fill="none" viewBox="0 0 24 24" id="plus">
    <g>
      <path stroke="currentColor" stroke-linecap="round" stroke-linejoin="round" stroke-width="1.5" d="M6 12h6m6 0h-6m0 0V6m0 6v6"></path>
    </g>
  </symbol>
  <symbol fill="none" viewBox="0 0 24 24" id="page">
    <g>
      <path stroke="currentColor" stroke-linecap="round" stroke-linejoin="round" stroke-width="1.5" d="M4 21.4V2.6a.6.6 0 01.6-.6h11.652a.6.6 0 01.424.176l3.148 3.148A.6.6 0 0120 5.75V21.4a.6.6 0 01-.6.6H4.6a.6.6 0 01-.6-.6z"></path>
      <path fill="currentColor" stroke="currentColor" stroke-linecap="round" stroke-linejoin="round" stroke-width="1.5" d="M16 5.4V2.354a.354.354 0 01.604-.25l3.292 3.292a.353.353 0 01-.25.604H16.6a.6.6 0 01-.6-.6z"></path>
      <path stroke="currentColor" stroke-linecap="round" stroke-linejoin="round" stroke-width="1.5" d="M8 10h8"></path>
      <path stroke="currentColor" stroke-linecap="round" stroke-linejoin="round" stroke-width="1.5" d="M8 18h8"></path>
      <path stroke="currentColor" stroke-linecap="round" stroke-linejoin="round" stroke-width="1.5" d="M8 14h4"></path>
    </g>
  </symbol>
  <symbol fill="none" viewBox="0 0 24 24" id="prohibition">
    <g>
      <path stroke="currentColor" stroke-linecap="round" stroke-linejoin="round" stroke-width="1.5" d="M19.141 5A9.97 9.97 0 0012 2C6.477 2 2 6.477 2 12a9.968 9.968 0 002.859 7M19.14 5A9.967 9.967 0 0122 12c0 5.523-4.477 10-10 10a9.97 9.97 0 01-7.141-3M19.14 5L4.86 19"></path>
    </g>
  </symbol>
  <symbol fill="none" viewBox="0 0 24 24" id="report-columns">
    <g>
      <path stroke="currentColor" stroke-width="1.5" d="M3 7.4V3.6a.6.6 0 01.6-.6h5.8a.6.6 0 01.6.6v3.8a.6.6 0 01-.6.6H3.6a.6.6 0 01-.6-.6z"></path>
      <path stroke="currentColor" stroke-width="1.5" d="M14 20.4v-3.8a.6.6 0 01.6-.6h5.8a.6.6 0 01.6.6v3.8a.6.6 0 01-.6.6h-5.8a.6.6 0 01-.6-.6z"></path>
      <path stroke="currentColor" stroke-width="1.5" d="M14 12.4V3.6a.6.6 0 01.6-.6h5.8a.6.6 0 01.6.6v8.8a.6.6 0 01-.6.6h-5.8a.6.6 0 01-.6-.6z"></path>
      <path stroke="currentColor" stroke-width="1.5" d="M3 20.4v-8.8a.6.6 0 01.6-.6h5.8a.6.6 0 01.6.6v8.8a.6.6 0 01-.6.6H3.6a.6.6 0 01-.6-.6z"></path>
    </g>
  </symbol>
  <symbol fill="none" viewBox="0 0 24 24" id="right-circle">
    <g>
      <path stroke="currentColor" stroke-linecap="round" stroke-linejoin="round" stroke-width="1.5" d="M11 8.5l3.5 3.5-3.5 3.5"></path>
      <path stroke="currentColor" stroke-linecap="round" stroke-linejoin="round" stroke-width="1.5" d="M12 22c5.523 0 10-4.477 10-10S17.523 2 12 2 2 6.477 2 12s4.477 10 10 10z"></path>
    </g>
  </symbol>
  <symbol fill="none" viewBox="0 0 24 24" id="question-mark-circle">
    <g>
      <path stroke="currentColor" stroke-linecap="round" stroke-linejoin="round" stroke-width="1.5" d="M12 22c5.523 0 10-4.477 10-10S17.523 2 12 2 2 6.477 2 12s4.477 10 10 10z"></path>
      <path stroke="currentColor" stroke-linecap="round" stroke-linejoin="round" stroke-width="1.5" d="M9 9c0-3.5 5.5-3.5 5.5 0 0 2.5-2.5 2-2.5 5"></path>
      <path stroke="currentColor" stroke-linecap="round" stroke-linejoin="round" stroke-width="1.5" d="M12 18.01l.01-.011"></path>
    </g>
  </symbol>
  <symbol fill="none" viewBox="0 0 24 24" id="server">
    <g>
      <path stroke="currentColor" stroke-linecap="round" stroke-linejoin="round" stroke-width="1.5" d="M6 18.01l.01-.011"></path>
      <path stroke="currentColor" stroke-linecap="round" stroke-linejoin="round" stroke-width="1.5" d="M6 6.01l.01-.011"></path>
      <path stroke="currentColor" stroke-width="1.5" d="M2 9.4V2.6a.6.6 0 01.6-.6h18.8a.6.6 0 01.6.6v6.8a.6.6 0 01-.6.6H2.6a.6.6 0 01-.6-.6z"></path>
      <path stroke="currentColor" stroke-width="1.5" d="M2 21.4v-6.8a.6.6 0 01.6-.6h18.8a.6.6 0 01.6.6v6.8a.6.6 0 01-.6.6H2.6a.6.6 0 01-.6-.6z"></path>
    </g>
  </symbol>
  <symbol fill="none" viewBox="0 0 24 24" id="search">
    <g>
      <path stroke="currentColor" stroke-linecap="round" stroke-linejoin="round" stroke-width="1.5" d="M15.5 15.5L19 19"></path>
      <path stroke="currentColor" stroke-linecap="round" stroke-linejoin="round" stroke-width="1.5" d="M5 11a6 6 0 1012 0 6 6 0 00-12 0z"></path>
    </g>
  </symbol>
  <symbol fill="none" viewBox="0 0 24 24" id="settings">
    <g>
      <path stroke="currentColor" stroke-linecap="round" stroke-linejoin="round" stroke-width="1.5" d="M12 15a3 3 0 100-6 3 3 0 000 6z"></path>
      <path stroke="currentColor" stroke-linecap="round" stroke-linejoin="round" stroke-width="1.5" d="M19.622 10.395l-1.097-2.65L20 6l-2-2-1.735 1.483-2.707-1.113L12.935 2h-1.954l-.632 2.401-2.645 1.115L6 4 4 6l1.453 1.789-1.08 2.657L2 11v2l2.401.655L5.516 16.3 4 18l2 2 1.791-1.46 2.606 1.072L11 22h2l.604-2.387 2.651-1.098C16.697 18.831 18 20 18 20l2-2-1.484-1.75 1.098-2.652 2.386-.62V11l-2.378-.605z"></path>
    </g>
  </symbol>
  <symbol fill="none" viewBox="0 0 24 24" id="smartphone-device">
    <g>
      <path stroke="currentColor" stroke-linecap="round" stroke-linejoin="round" stroke-width="1.5" d="M12 16.01l.01-.011"></path>
      <path stroke="currentColor" stroke-width="1.5" d="M7 19.4V4.6a.6.6 0 01.6-.6h8.8a.6.6 0 01.6.6v14.8a.6.6 0 01-.6.6H7.6a.6.6 0 01-.6-.6z"></path>
    </g>
  </symbol>
  <symbol fill="none" viewBox="0 0 24 24" id="star-outline">
    <g>
      <path stroke="currentColor" stroke-linecap="round" stroke-linejoin="round" stroke-width="1.5" d="M8.587 8.236l2.598-5.232a.911.911 0 011.63 0l2.598 5.232 5.808.844a.902.902 0 01.503 1.542l-4.202 4.07.992 5.75c.127.738-.653 1.3-1.32.952L12 18.678l-5.195 2.716c-.666.349-1.446-.214-1.319-.953l.992-5.75-4.202-4.07a.902.902 0 01.503-1.54l5.808-.845z"></path>
    </g>
  </symbol>
  <symbol fill="none" viewBox="0 0 24 24" id="switch-on-outline">
    <g>
      <path fill="currentColor" stroke="currentColor" stroke-linecap="round" stroke-linejoin="round" stroke-width="1.5" d="M17 13a1 1 0 100-2 1 1 0 000 2z"></path>
      <path stroke="currentColor" stroke-width="1.5" d="M17 17H7A5 5 0 017 7h10a5 5 0 010 10z"></path>
    </g>
  </symbol>
  <symbol fill="none" viewBox="0 0 24 24" id="table-rows">
    <g>
      <path stroke="currentColor" stroke-width="1.5" d="M3 12h18M3 12v4.5M3 12V7.5M21 12v4.5m0-4.5V7.5m-18 9v3.9a.6.6 0 00.6.6h16.8a.6.6 0 00.6-.6v-3.9m-18 0h18m0-9V3.6a.6.6 0 00-.6-.6H3.6a.6.6 0 00-.6.6v3.9m18 0H3"></path>
    </g>
  </symbol>
  <symbol fill="none" viewBox="0 0 24 24" id="trash">
    <g>
      <path stroke="currentColor" stroke-linecap="round" stroke-linejoin="round" stroke-width="1.5" d="M19 11v9.4a.6.6 0 01-.6.6H5.6a.6.6 0 01-.6-.6V11"></path>
      <path stroke="currentColor" stroke-linecap="round" stroke-linejoin="round" stroke-width="1.5" d="M10 17v-6"></path>
      <path stroke="currentColor" stroke-linecap="round" stroke-linejoin="round" stroke-width="1.5" d="M14 17v-6"></path>
      <path stroke="currentColor" stroke-linecap="round" stroke-linejoin="round" stroke-width="1.5" d="M21 7h-5M3 7h5m0 0V3.6a.6.6 0 01.6-.6h6.8a.6.6 0 01.6.6V7M8 7h8"></path>
    </g>
  </symbol>
  <symbol fill="none" viewBox="0 0 24 24" id="upload">
    <g>
      <path stroke="currentColor" stroke-linecap="round" stroke-linejoin="round" stroke-width="1.5" d="M6 20h12"></path>
      <path stroke="currentColor" stroke-linecap="round" stroke-linejoin="round" stroke-width="1.5" d="M12 16V4m0 0l3.5 3.5M12 4L8.5 7.5"></path>
    </g>
  </symbol>
  <symbol fill="none" viewBox="0 0 24 24" id="text">
    <g>
      <path stroke="currentColor" stroke-linecap="round" stroke-linejoin="round" stroke-width="1.5" d="M19 7V5H5v2"></path>
      <path stroke="currentColor" stroke-linecap="round" stroke-linejoin="round" stroke-width="1.5" d="M12 5v14m0 0h-2m2 0h2"></path>
    </g>
  </symbol>
  <symbol fill="none" viewBox="0 0 24 24" id="user">
    <g>
      <path stroke="currentColor" stroke-linecap="round" stroke-linejoin="round" stroke-width="1.5" d="M5 20v-1a7 7 0 017-7v0a7 7 0 017 7v1"></path>
      <path stroke="currentColor" stroke-linecap="round" stroke-linejoin="round" stroke-width="1.5" d="M12 12a4 4 0 100-8 4 4 0 000 8z"></path>
    </g>
  </symbol>
  <symbol fill="none" viewBox="0 0 24 24" id="warning-circled-outline">
    <g>
      <path stroke="currentColor" stroke-linecap="round" stroke-linejoin="round" stroke-width="1.5" d="M12 7v6"></path>
      <path stroke="currentColor" stroke-linecap="round" stroke-linejoin="round" stroke-width="1.5" d="M12 17.01l.01-.011"></path>
      <path stroke="currentColor" stroke-linecap="round" stroke-linejoin="round" stroke-width="1.5" d="M12 22c5.523 0 10-4.477 10-10S17.523 2 12 2 2 6.477 2 12s4.477 10 10 10z"></path>
    </g>
  </symbol>
  <symbol fill="none" viewBox="0 0 24 24" id="warning-triangle-outline">
    <g>
      <path stroke="currentColor" stroke-linecap="round" stroke-width="1.5" d="M20.043 21H3.957c-1.538 0-2.5-1.664-1.734-2.997l8.043-13.988c.77-1.337 2.699-1.337 3.468 0l8.043 13.988C22.543 19.336 21.58 21 20.043 21z"></path>
      <path stroke="currentColor" stroke-linecap="round" stroke-width="1.5" d="M12 9v4"></path>
      <path stroke="currentColor" stroke-linecap="round" stroke-linejoin="round" stroke-width="1.5" d="M12 17.01l.01-.011"></path>
    </g>
  </symbol>
  <symbol fill="none" viewBox="0 0 24 24" id="kubernetes">
      <g>
        <path fill="currentColor" d="M11.926.355c-.215.016-.426.07-.617.165l-8.36 3.988a1.579 1.579 0 0 0-.863 1.074l-2.047 8.95a1.55 1.55 0 0 0 .227 1.218c.027.043.058.086.09.125l5.773 7.18c.309.375.766.593 1.25.59h9.262a1.63 1.63 0 0 0 1.246-.594l5.773-7.184c.3-.375.414-.87.3-1.34l-2.062-8.953A1.573 1.573 0 0 0 21.04 4.5L12.691.52a1.653 1.653 0 0 0-.773-.165zm0 0"/>
        <path stroke="#FFF" stroke-width=".04125" fill="#FFF" d="M12 3.406a.526.526 0 0 0-.488.555v.14c.011.16.035.32.066.477.047.3.063.602.05.906a.516.516 0 0 1-.163.258l-.012.211a6.992 6.992 0 0 0-.902.14 6.42 6.42 0 0 0-3.266 1.864l-.18-.125a.414.414 0 0 1-.296-.031 4.51 4.51 0 0 1-.672-.61 3.929 3.929 0 0 0-.328-.347l-.11-.086a.583.583 0 0 0-.347-.133.489.489 0 0 0-.399.176.534.534 0 0 0 .121.738l.106.082c.132.09.27.172.414.242.265.149.515.32.75.528a.532.532 0 0 1 .097.285l.164.152a6.46 6.46 0 0 0-1.02 4.504l-.21.059a.692.692 0 0 1-.21.214 4.64 4.64 0 0 1-.9.149c-.16.004-.32.016-.48.039l-.133.031h-.011a.486.486 0 0 0-.407.332.502.502 0 0 0 .114.516.513.513 0 0 0 .515.125h.008l.137-.016c.152-.047.3-.101.445-.164.281-.113.574-.199.875-.254.102.004.2.04.285.102l.227-.04a6.49 6.49 0 0 0 2.879 3.602l-.094.192c.043.09.059.183.047.281-.125.29-.277.563-.453.82a4.457 4.457 0 0 0-.27.399l-.062.136a.496.496 0 0 0 .015.524.497.497 0 0 0 .887-.098l.063-.129c.058-.148.105-.3.144-.457.133-.328.203-.68.387-.894a.374.374 0 0 1 .215-.106l.109-.207a6.464 6.464 0 0 0 4.61.012l.101.191c.102.016.195.07.254.157.14.265.258.547.344.84.039.152.086.308.144.457l.063.128a.5.5 0 0 0 .414.32.512.512 0 0 0 .476-.222.511.511 0 0 0 .012-.527l-.066-.133a4.153 4.153 0 0 0-.266-.398 5.134 5.134 0 0 1-.453-.793.404.404 0 0 1 .05-.301 1.839 1.839 0 0 1-.081-.203 6.48 6.48 0 0 0 2.867-3.614l.215.036a.4.4 0 0 1 .277-.102c.297.055.59.148.871.254.148.066.297.125.45.172.034.011.09.02.128.027h.012c.18.059.379.012.512-.125a.495.495 0 0 0 .117-.512.507.507 0 0 0-.406-.336l-.149-.03a3.856 3.856 0 0 0-.476-.04 4.64 4.64 0 0 1-.899-.148.567.567 0 0 1-.215-.215l-.203-.063a6.48 6.48 0 0 0-1.039-4.492l.176-.164a.406.406 0 0 1 .094-.285c.23-.195.48-.371.742-.52.144-.074.281-.156.414-.242l.11-.09a.497.497 0 0 0 .234-.48.5.5 0 0 0-.856-.3l-.11.089c-.116.11-.226.227-.327.348a4.67 4.67 0 0 1-.657.617c-.093.039-.199.05-.3.035l-.192.133a6.533 6.533 0 0 0-4.152-2c0-.078-.008-.188-.012-.223a.402.402 0 0 1-.16-.25 4.69 4.69 0 0 1 .055-.906c.03-.156.054-.317.07-.473v-.152a.527.527 0 0 0-.492-.555zm-.625 3.875-.148 2.621h-.012a.447.447 0 0 1-.25.375.425.425 0 0 1-.45-.039L8.368 8.715a5.152 5.152 0 0 1 2.477-1.348c.176-.039.351-.066.531-.086zm1.254 0a5.23 5.23 0 0 1 2.992 1.442l-2.129 1.515a.445.445 0 0 1-.465.051.43.43 0 0 1-.25-.39zM7.586 9.703l1.965 1.75v.012a.439.439 0 0 1-.172.758v.007l-2.524.727a5.184 5.184 0 0 1 .73-3.258zm8.816 0c.598.969.86 2.11.75 3.242l-2.523-.726v-.008a.443.443 0 0 1-.176-.758l1.953-1.746zm-4.804 1.887h.804l.493.625-.18.781-.723.348-.722-.348-.172-.781zm2.578 2.129a.441.441 0 0 1 .101 0l2.598.441a5.101 5.101 0 0 1-2.082 2.617l-1.004-2.433a.453.453 0 0 1 .031-.407.447.447 0 0 1 .352-.207zm-4.367.011a.45.45 0 0 1 .363.204c.078.12.09.277.035.41v.011l-1 2.415a5.177 5.177 0 0 1-2.07-2.594l2.578-.438a.317.317 0 0 1 .086 0zm2.175 1.051a.438.438 0 0 1 .403.23h.011l1.27 2.294-.508.148a5.172 5.172 0 0 1-2.82-.144l1.277-2.293a.445.445 0 0 1 .375-.22zm0 0"/>
      </g>
  </symbol>
</svg>
